Sean-wt820.65_x3243.77.ufo
<glyph name="comma" format="1">
  <advance width="363"/>
  <unicode hex="002C"/>
  <outline>
    <contour>
      <point x="156" y="-99" type="line"/>
      <point x="264" y="82" type="line"/>
      <point x="244" y="92" type="line"/>
      <point x="136" y="-88" type="line"/>
    </contour>
  </outline>
</glyph>
<glyph name="hyphen" format="1">
  <advance width="472"/>
  <unicode hex="002D"/>
  <outline>
    <contour>
      <point x="382" y="261" type="line"/>
      <point x="382" y="283" type="line"/>
      <point x="91" y="283" type="line"/>
      <point x="91" y="261" type="line"/>
    </contour>
  </outline>
</glyph>
<glyph name="slash" format="1">
  <advance width="509"/>
  <unicode hex="002F"/>
  <outline>
    <contour>
      <point x="66" y="-68" type="line"/>
      <point x="492" y="844" type="line"/>
      <point x="470" y="844" type="line"/>
      <point x="44" y="-68" type="line"/>
    </contour>
  </outline>
</glyph>
<glyph name="colon" format="1">
  <advance width="290"/>
  <unicode hex="003A"/>
  <outline>
    <contour>
      <point x="151" y="0" type="line"/>
      <point x="151" y="146" type="line"/>
      <point x="129" y="146" type="line"/>
      <point x="129" y="0" type="line"/>
    </contour>
    <contour>
      <point x="151" y="341" type="line"/>
      <point x="151" y="487" type="line"/>
      <point x="129" y="487" type="line"/>
      <point x="129" y="341" type="line"/>
    </contour>
  </outline>
</glyph>
<glyph name="semicolon" format="1">
  <advance width="400"/>
  <unicode hex="003B"/>
  <outline>
    <contour>
      <point x="156" y="-99" type="line"/>
      <point x="264" y="82" type="line"/>
      <point x="244" y="92" type="line"/>
      <point x="136" y="-88" type="line"/>
    </contour>
    <contour>
      <point x="260" y="341" type="line"/>
      <point x="260" y="487" type="line"/>
      <point x="238" y="487" type="line"/>
      <point x="238" y="341" type="line"/>
    </contour>
  </outline>
</glyph>
<glyph name="less" format="1">
  <advance width="691"/>
  <unicode hex="003C"/>
  <outline>
    <contour>
      <point x="38" y="289" type="line"/>
      <point x="647" y="559" type="line"/>
      <point x="647" y="581" type="line"/>
      <point x="38" y="311" type="line"/>
    </contour>
    <contour>
      <point x="38" y="311" type="line"/>
      <point x="38" y="289" type="line"/>
      <point x="657" y="25" type="line"/>
      <point x="657" y="47" type="line"/>
    </contour>
  </outline>
</glyph>
<glyph name="E" format="1">
  <advance width="582"/>
  <unicode hex="0045"/>
  <outline>
    <contour>
      <point x="98" y="362" type="line"/>
      <point x="426" y="362" type="line"/>
      <point x="426" y="384" type="line"/>
      <point x="98" y="384" type="line"/>
    </contour>
    <contour>
      <point x="83" y="701" type="line"/>
      <point x="489" y="701" type="line"/>
      <point x="489" y="722" type="line"/>
      <point x="83" y="722" type="line"/>
    </contour>
    <contour>
      <point x="105" y="0" type="line"/>
      <point x="105" y="722" type="line"/>
      <point x="83" y="722" type="line"/>
      <point x="83" y="0" type="line"/>
    </contour>
    <contour>
      <point x="83" y="0" type="line"/>
      <point x="523" y="0" type="line"/>
      <point x="523" y="22" type="line"/>
      <point x="83" y="22" type="line"/>
    </contour>
  </outline>
</glyph>
<glyph name="F" format="1">
  <advance width="581"/>
  <unicode hex="0046"/>
  <outline>
    <contour>
      <point x="135" y="362" type="line"/>
      <point x="457" y="362" type="line"/>
      <point x="457" y="384" type="line"/>
      <point x="135" y="384" type="line"/>
    </contour>
    <contour>
      <point x="142" y="0" type="line"/>
      <point x="142" y="722" type="line"/>
      <point x="120" y="722" type="line"/>
      <point x="120" y="0" type="line"/>
    </contour>
    <contour>
      <point x="120" y="701" type="line"/>
      <point x="530" y="701" type="line"/>
      <point x="530" y="722" type="line"/>
      <point x="120" y="722" type="line"/>
    </contour>
  </outline>
</glyph>
<glyph name="H" format="1">
  <advance width="800"/>
  <unicode hex="0048"/>
  <outline>
    <contour>
      <point x="162" y="722" type="line"/>
      <point x="140" y="722" type="line"/>
      <point x="140" y="0" type="line"/>
      <point x="162" y="0" type="line"/>
    </contour>
    <contour>
      <point x="654" y="373" type="line"/>
      <point x="151" y="373" type="line"/>
      <point x="151" y="351" type="line"/>
      <point x="654" y="351" type="line"/>
    </contour>
    <contour>
      <point x="645" y="0" type="line"/>
      <point x="667" y="0" type="line"/>
      <point x="667" y="722" type="line"/>
      <point x="645" y="722" type="line"/>
    </contour>
  </outline>
</glyph>
<glyph name="I" format="1">
  <advance width="290"/>
  <unicode hex="0049"/>
  <outline>
    <contour>
      <point x="152" y="0" type="line"/>
      <point x="152" y="722" type="line"/>
      <point x="130" y="722" type="line"/>
      <point x="130" y="0" type="line"/>
    </contour>
  </outline>
</glyph>
<glyph name="M" format="1">
  <advance width="909"/>
  <unicode hex="004D"/>
  <outline>
    <contour>
      <point x="721" y="722" type="line"/>
      <point x="783" y="0" type="line"/>
      <point x="805" y="0" type="line"/>
      <point x="743" y="722" type="line"/>
    </contour>
    <contour>
      <point x="175" y="722" type="line"/>
      <point x="153" y="722" type="line"/>
      <point x="94" y="0" type="line"/>
      <point x="116" y="0" type="line"/>
    </contour>
    <contour>
      <point x="459" y="0" type="line"/>
      <point x="175" y="722" type="line"/>
      <point x="153" y="722" type="line"/>
      <point x="435" y="0" type="line"/>
    </contour>
    <contour>
      <point x="721" y="722" type="line"/>
      <point x="441" y="0" type="line"/>
      <point x="466" y="0" type="line"/>
      <point x="743" y="722" type="line"/>
    </contour>
  </outline>
</glyph>
<glyph name="N" format="1">
  <advance width="800"/>
  <unicode hex="004E"/>
  <outline>
    <contour>
      <point x="684" y="0" type="line"/>
      <point x="148" y="722" type="line"/>
      <point x="122" y="722" type="line"/>
      <point x="658" y="0" type="line"/>
    </contour>
    <contour>
      <point x="662" y="722" type="line"/>
      <point x="662" y="0" type="line"/>
      <point x="684" y="0" type="line"/>
      <point x="684" y="722" type="line"/>
    </contour>
    <contour>
      <point x="144" y="722" type="line"/>
      <point x="122" y="722" type="line"/>
      <point x="122" y="0" type="line"/>
      <point x="144" y="0" type="line"/>
    </contour>
  </outline>
</glyph>
<glyph name="P" format="1">
  <advance width="477"/>
  <unicode hex="0050"/>
  <outline>
    <contour>
      <point x="62" y="701" type="line"/>
      <point x="187" y="701" type="line"/>
      <point x="319" y="701"/>
      <point x="410" y="621"/>
      <point x="410" y="492" type="curve" smooth="yes"/>
      <point x="410" y="376"/>
      <point x="332" y="301"/>
      <point x="216" y="301" type="curve" smooth="yes"/>
      <point x="157" y="301"/>
      <point x="116" y="319"/>
      <point x="64" y="346" type="curve"/>
      <point x="57" y="327" type="line"/>
      <point x="108" y="300"/>
      <point x="156" y="280"/>
      <point x="214" y="280" type="curve" smooth="yes"/>
      <point x="345" y="282"/>
      <point x="432" y="365"/>
      <point x="432" y="494" type="curve" smooth="yes"/>
      <point x="432" y="634"/>
      <point x="333" y="722"/>
      <point x="190" y="722" type="curve" smooth="yes"/>
      <point x="62" y="722" type="line"/>
    </contour>
    <contour>
      <point x="47" y="722" type="line"/>
      <point x="47" y="0" type="line"/>
      <point x="69" y="0" type="line"/>
      <point x="69" y="722" type="line"/>
    </contour>
  </outline>
</glyph>
<glyph name="T" format="1">
  <advance width="692"/>
  <unicode hex="0054"/>
  <outline>
    <contour>
      <point x="325" y="710" type="line"/>
      <point x="325" y="0" type="line"/>
      <point x="347" y="0" type="line"/>
      <point x="347" y="710" type="line"/>
    </contour>
    <contour>
      <point x="646" y="700" type="line"/>
      <point x="646" y="722" type="line"/>
      <point x="43" y="722" type="line"/>
      <point x="43" y="700" type="line"/>
    </contour>
  </outline>
</glyph>
<glyph name="Y" format="1">
  <advance width="509"/>
  <unicode hex="0059"/>
  <outline>
    <contour>
      <point x="255" y="337" type="line"/>
      <point x="20" y="722" type="line"/>
      <point x="-4" y="722" type="line"/>
      <point x="231" y="337" type="line"/>
    </contour>
    <contour>
      <point x="479" y="722" type="line"/>
      <point x="231" y="337" type="line"/>
      <point x="255" y="337" type="line"/>
      <point x="503" y="722" type="line"/>
    </contour>
    <contour>
      <point x="255" y="0" type="line"/>
      <point x="255" y="346" type="line"/>
      <point x="231" y="346" type="line"/>
      <point x="231" y="0" type="line"/>
    </contour>
  </outline>
</glyph>
<glyph name="Z" format="1">
  <advance width="654"/>
  <unicode hex="005A"/>
  <outline>
    <contour>
      <point x="601" y="712" type="line"/>
      <point x="35" y="22" type="line"/>
      <point x="51" y="10" type="line"/>
      <point x="617" y="700" type="line"/>
    </contour>
    <contour>
      <point x="35" y="22" type="line"/>
      <point x="35" y="0" type="line"/>
      <point x="639" y="0" type="line"/>
      <point x="639" y="22" type="line"/>
    </contour>
    <contour>
      <point x="617" y="700" type="line"/>
      <point x="617" y="722" type="line"/>
      <point x="105" y="722" type="line"/>
      <point x="105" y="700" type="line"/>
    </contour>
  </outline>
</glyph>
<glyph name="bracketleft" format="1">
  <advance width="254"/>
  <unicode hex="005B"/>
  <outline>
    <contour>
      <point x="64" y="-134" type="line"/>
      <point x="64" y="771" type="line"/>
      <point x="42" y="771" type="line"/>
      <point x="42" y="-134" type="line"/>
    </contour>
    <contour>
      <point x="42" y="-124" type="line"/>
      <point x="42" y="-146" type="line"/>
      <point x="199" y="-146" type="line"/>
      <point x="199" y="-124" type="line"/>
    </contour>
    <contour>
      <point x="42" y="771" type="line"/>
      <point x="42" y="749" type="line"/>
      <point x="199" y="749" type="line"/>
      <point x="199" y="771" type="line"/>
    </contour>
  </outline>
</glyph>
<glyph name="underscore" format="1">
  <advance width="857"/>
  <unicode hex="005F"/>
  <outline>
    <contour>
      <point x="85" y="-210" type="line"/>
      <point x="767" y="-210" type="line"/>
      <point x="767" y="-188" type="line"/>
      <point x="85" y="-188" type="line"/>
    </contour>
  </outline>
</glyph>
<glyph name="grave" format="1">
  <advance width="400"/>
  <unicode hex="0060"/>
  <outline>
    <contour>
      <point x="293" y="644" type="line"/>
      <point x="308" y="656" type="line"/>
      <point x="157" y="846" type="line"/>
      <point x="141" y="835" type="line"/>
    </contour>
  </outline>
</glyph>
<glyph name="b" format="1">
  <advance width="654"/>
  <unicode hex="0062"/>
  <outline>
    <contour>
      <point x="125" y="457" type="line"/>
      <point x="179" y="517"/>
      <point x="235" y="548"/>
      <point x="314" y="548" type="curve" smooth="yes"/>
      <point x="470" y="548"/>
      <point x="558" y="423"/>
      <point x="558" y="258" type="curve" smooth="yes"/>
      <point x="558" y="104"/>
      <point x="476" y="-10"/>
      <point x="332" y="-10" type="curve"/>
      <point x="236" y="-10"/>
      <point x="166" y="36"/>
      <point x="126" y="122" type="curve"/>
      <point x="135" y="134" type="line"/>
      <point x="175" y="55"/>
      <point x="239" y="13"/>
      <point x="328" y="13" type="curve"/>
      <point x="462" y="12"/>
      <point x="539" y="119"/>
      <point x="536" y="262" type="curve"/>
      <point x="536" y="413"/>
      <point x="459" y="528"/>
      <point x="318" y="528" type="curve" smooth="yes"/>
      <point x="241" y="528"/>
      <point x="185" y="500"/>
      <point x="133" y="442" type="curve"/>
    </contour>
    <contour>
      <point x="138" y="0" type="line"/>
      <point x="116" y="0" type="line"/>
      <point x="116" y="800" type="line"/>
      <point x="138" y="800" type="line"/>
    </contour>
  </outline>
</glyph>
<glyph name="l" format="1">
  <advance width="222"/>
  <unicode hex="006C"/>
  <outline>
    <contour>
      <point x="117" y="0" type="line"/>
      <point x="117" y="800" type="line"/>
      <point x="95" y="800" type="line"/>
      <point x="95" y="0" type="line"/>
    </contour>
  </outline>
</glyph>
<glyph name="n" format="1">
  <advance width="372"/>
  <unicode hex="006E"/>
  <outline>
    <contour>
      <point x="159" y="358" type="line"/>
      <point x="167" y="379"/>
      <point x="173" y="405"/>
      <point x="194" y="405" type="curve" smooth="yes"/>
      <point x="209" y="405"/>
      <point x="216" y="387"/>
      <point x="216" y="370" type="curve"/>
      <point x="216" y="0" type="line"/>
      <point x="366" y="0" type="line"/>
      <point x="366" y="375" type="line"/>
      <point x="366" y="479"/>
      <point x="334" y="543"/>
      <point x="239" y="543" type="curve" smooth="yes"/>
      <point x="165" y="543"/>
      <point x="144" y="453"/>
      <point x="123" y="376" type="curve"/>
    </contour>
    <contour>
      <point x="164" y="533" type="line"/>
      <point x="16" y="533" type="line"/>
      <point x="16" y="0" type="line"/>
      <point x="164" y="0" type="line"/>
    </contour>
  </outline>
</glyph>
<glyph name="w" format="1">
  <advance width="836"/>
  <unicode hex="0077"/>
  <outline>
    <contour>
      <point x="222" y="0" type="line"/>
      <point x="425" y="533" type="line"/>
      <point x="400" y="533" type="line"/>
      <point x="200" y="0" type="line"/>
    </contour>
    <contour>
      <point x="590" y="0" type="line"/>
      <point x="612" y="0" type="line"/>
      <point x="802" y="533" type="line"/>
      <point x="778" y="533" type="line"/>
    </contour>
    <contour>
      <point x="407" y="533" type="line"/>
      <point x="590" y="0" type="line"/>
      <point x="612" y="0" type="line"/>
      <point x="431" y="533" type="line"/>
    </contour>
    <contour>
      <point x="222" y="0" type="line"/>
      <point x="42" y="533" type="line"/>
      <point x="18" y="533" type="line"/>
      <point x="200" y="0" type="line"/>
    </contour>
  </outline>
</glyph>
<glyph name="acute" format="1">
  <advance width="223"/>
  <unicode hex="00B4"/>
  <outline>
    <contour>
      <point x="42" y="644" type="line"/>
      <point x="27" y="656" type="line"/>
      <point x="183" y="846" type="line"/>
      <point x="197" y="835" type="line"/>
    </contour>
  </outline>
</glyph>
<glyph name="multiply" format="1">
  <advance width="400"/>
  <unicode hex="00D7"/>
  <outline>
    <contour>
      <point x="46" y="444" type="line"/>
      <point x="335" y="155" type="line"/>
      <point x="351" y="170" type="line"/>
      <point x="61" y="460" type="line"/>
    </contour>
    <contour>
      <point x="354" y="442" type="line"/>
      <point x="338" y="457" type="line"/>
      <point x="54" y="173" type="line"/>
      <point x="69" y="157" type="line"/>
    </contour>
  </outline>
</glyph>
<glyph name="divide" format="1">
  <advance width="533"/>
  <unicode hex="00F7"/>
  <outline>
    <contour>
      <point x="495" y="243" type="line"/>
      <point x="495" y="265" type="line"/>
      <point x="40" y="265" type="line"/>
      <point x="40" y="243" type="line"/>
    </contour>
    <contour>
      <point x="241" y="394" type="line"/>
      <point x="286" y="394" type="line"/>
      <point x="286" y="440" type="line"/>
      <point x="241" y="440" type="line"/>
    </contour>
    <contour>
      <point x="241" y="107" type="line"/>
      <point x="241" y="61" type="line"/>
      <point x="286" y="61" type="line"/>
      <point x="286" y="107" type="line"/>
    </contour>
  </outline>
</glyph>
<glyph name="florin" format="1">
  <advance width="444"/>
  <unicode hex="0192"/>
  <outline>
    <contour>
      <point x="393" y="526" type="line"/>
      <point x="393" y="548" type="line"/>
      <point x="134" y="548" type="line"/>
      <point x="134" y="526" type="line"/>
    </contour>
    <contour>
      <point x="427" y="808" type="curve"/>
      <point x="431" y="828" type="line"/>
      <point x="351" y="844"/>
      <point x="297" y="794"/>
      <point x="280" y="710" type="curve"/>
      <point x="155" y="60" type="line"/>
      <point x="141" y="-13"/>
      <point x="96" y="-60"/>
      <point x="26" y="-46" type="curve"/>
      <point x="22" y="-66" type="line"/>
      <point x="104" y="-81"/>
      <point x="160" y="-30"/>
      <point x="177" y="57" type="curve"/>
      <point x="303" y="709" type="line"/>
      <point x="316" y="780"/>
      <point x="360" y="821"/>
    </contour>
  </outline>
</glyph>
<glyph name="circumflex" format="1">
  <advance width="355"/>
  <unicode hex="02C6"/>
  <outline>
    <contour>
      <point x="168" y="779" type="line"/>
      <point x="288" y="608" type="line"/>
      <point x="310" y="608" type="line"/>
      <point x="190" y="779" type="line"/>
    </contour>
    <contour>
      <point x="190" y="779" type="line"/>
      <point x="168" y="779" type="line"/>
      <point x="44" y="598" type="line"/>
      <point x="66" y="598" type="line"/>
    </contour>
  </outline>
</glyph>
<glyph name="ring" format="1">
  <advance width="246"/>
  <unicode hex="02DA"/>
  <outline>
    <contour>
      <point x="36" y="625" type="curve" smooth="yes"/>
      <point x="36" y="574"/>
      <point x="71" y="539"/>
      <point x="121" y="539" type="curve" smooth="yes"/>
      <point x="171" y="539"/>
      <point x="206" y="574"/>
      <point x="206" y="625" type="curve" smooth="yes"/>
      <point x="206" y="676"/>
      <point x="171" y="711"/>
      <point x="121" y="711" type="curve" smooth="yes"/>
      <point x="71" y="711"/>
      <point x="36" y="676"/>
    </contour>
    <contour>
      <point x="57" y="626" type="curve" smooth="yes"/>
      <point x="57" y="663"/>
      <point x="82" y="690"/>
      <point x="119" y="690" type="curve" smooth="yes"/>
      <point x="158" y="690"/>
      <point x="185" y="663"/>
      <point x="185" y="624" type="curve" smooth="yes"/>
      <point x="185" y="587"/>
      <point x="160" y="561"/>
      <point x="123" y="561" type="curve" smooth="yes"/>
      <point x="84" y="561"/>
      <point x="57" y="587"/>
    </contour>
  </outline>
</glyph>
<glyph name="tilde" format="1">
  <advance width="399"/>
  <unicode hex="02DC"/>
  <outline>
    <contour>
      <point x="343" y="775" type="line"/>
      <point x="343" y="728"/>
      <point x="327" y="691"/>
      <point x="285" y="691" type="curve" smooth="yes"/>
      <point x="251" y="691"/>
      <point x="232" y="708"/>
      <point x="206" y="730" type="curve" smooth="yes"/>
      <point x="179" y="754"/>
      <point x="160" y="775"/>
      <point x="124" y="775" type="curve" smooth="yes"/>
      <point x="65" y="775"/>
      <point x="34" y="731"/>
      <point x="34" y="669" type="curve"/>
      <point x="54" y="669" type="line"/>
      <point x="54" y="719"/>
      <point x="77" y="755"/>
      <point x="123" y="755" type="curve" smooth="yes"/>
      <point x="151" y="755"/>
      <point x="165" y="739"/>
      <point x="186" y="720" type="curve" smooth="yes"/>
      <point x="218" y="693"/>
      <point x="241" y="671"/>
      <point x="283" y="670" type="curve" smooth="yes"/>
      <point x="339" y="670"/>
      <point x="364" y="715"/>
      <point x="364" y="775" type="curve"/>
    </contour>
  </outline>
</glyph>
<glyph name="v_a" format="1">
  <advance width="754"/>
  <unicode hex="0905"/>
  <outline>
    <contour>
      <point x="628" y="399" type="line"/>
      <point x="489" y="333"/>
      <point x="372" y="350"/>
      <point x="220" y="375" type="curve"/>
      <point x="215" y="359" type="line"/>
      <point x="373" y="330"/>
      <point x="494" y="314"/>
      <point x="640" y="381" type="curve"/>
    </contour>
    <contour>
      <point x="154" y="383" type="curve"/>
      <point x="154" y="365" type="line"/>
      <point x="293" y="365"/>
      <point x="400" y="436"/>
      <point x="400" y="553" type="curve" smooth="yes"/>
      <point x="400" y="653"/>
      <point x="326" y="709"/>
      <point x="223" y="709" type="curve" smooth="yes"/>
      <point x="153" y="709"/>
      <point x="103" y="689"/>
      <point x="47" y="647" type="curve"/>
      <point x="61" y="631" type="line"/>
      <point x="112" y="669"/>
      <point x="156" y="689"/>
      <point x="220" y="689" type="curve" smooth="yes"/>
      <point x="313" y="689"/>
      <point x="379" y="640"/>
      <point x="378" y="551" type="curve" smooth="yes"/>
      <point x="377" y="447"/>
      <point x="280" y="383"/>
    </contour>
    <contour>
      <point x="154" y="362" type="line"/>
      <point x="297" y="362"/>
      <point x="407" y="298"/>
      <point x="409" y="192" type="curve" smooth="yes"/>
      <point x="411" y="86"/>
      <point x="329" y="20"/>
      <point x="211" y="24" type="curve" smooth="yes"/>
      <point x="139" y="24"/>
      <point x="75" y="59"/>
      <point x="31" y="110" type="curve"/>
      <point x="19" y="94" type="line"/>
      <point x="66" y="36"/>
      <point x="133" y="3"/>
      <point x="209" y="3" type="curve" smooth="yes"/>
      <point x="341" y="-2"/>
      <point x="432" y="74"/>
      <point x="430" y="195" type="curve" smooth="yes"/>
      <point x="428" y="311"/>
      <point x="308" y="379"/>
      <point x="154" y="379" type="curve"/>
    </contour>
    <component base="kana" xOffset="492"/>
  </outline>
</glyph>
<glyph name="v_i" format="1">
  <advance width="561"/>
  <unicode hex="0907"/>
  <outline>
    <contour>
      <point x="395" y="711" type="line"/>
      <point x="395" y="522" type="line"/>
      <point x="417" y="522" type="line"/>
      <point x="417" y="711" type="line"/>
    </contour>
    <contour>
      <point x="102" y="145" type="line"/>
      <point x="341" y="-144" type="line"/>
      <point x="362" y="-126" type="line"/>
      <point x="117" y="158" type="line"/>
    </contour>
    <contour>
      <point x="145" y="267" type="move"/>
      <point x="324" y="322"/>
      <point x="486" y="344"/>
      <point x="486" y="202" type="curve" smooth="yes"/>
      <point x="486" y="88"/>
      <point x="379" y="50"/>
      <point x="249" y="50" type="curve" smooth="yes"/>
      <point x="180" y="50"/>
      <point x="103" y="59"/>
      <point x="103" y="118" type="curve" smooth="yes"/>
      <point x="103" y="129"/>
      <point x="107" y="138"/>
      <point x="117" y="138" type="curve"/>
      <point x="117" y="158" type="line"/>
      <point x="94" y="158"/>
      <point x="81" y="140"/>
      <point x="81" y="115" type="curve" smooth="yes"/>
      <point x="81" y="47"/>
      <point x="166" y="29"/>
      <point x="245" y="29" type="curve" smooth="yes"/>
      <point x="390" y="29"/>
      <point x="507" y="78"/>
      <point x="507" y="207" type="curve" smooth="yes"/>
      <point x="505" y="355"/>
      <point x="338" y="346"/>
      <point x="151" y="289" type="curve"/>
    </contour>
    <contour>
      <point x="151" y="289" type="move"/>
      <point x="104" y="324"/>
      <point x="69" y="357"/>
      <point x="69" y="415" type="curve"/>
      <point x="69" y="488"/>
      <point x="130" y="521"/>
      <point x="210" y="521" type="curve"/>
      <point x="407" y="521" type="line"/>
      <point x="407" y="541" type="line"/>
      <point x="213" y="541" type="line"/>
      <point x="119" y="541"/>
      <point x="47" y="502"/>
      <point x="47" y="417" type="curve"/>
      <point x="47" y="347"/>
      <point x="86" y="305"/>
      <point x="145" y="267" type="curve"/>
    </contour>
    <component base="component_6" xOffset="278"/>
    <component base="component_6"/>
  </outline>
</glyph>
<glyph name="v_ii" format="1">
  <advance width="561"/>
  <unicode hex="0908"/>
  <outline>
    <contour>
      <point x="545" y="961" type="curve"/>
      <point x="552" y="978" type="line"/>
      <point x="507" y="995"/>
      <point x="468" y="1006"/>
      <point x="420" y="1006" type="curve" smooth="yes"/>
      <point x="332" y="1006"/>
      <point x="269" y="947"/>
      <point x="269" y="861" type="curve" smooth="yes"/>
      <point x="269" y="768"/>
      <point x="332" y="702"/>
      <point x="424" y="702" type="curve"/>
      <point x="424" y="722" type="line"/>
      <point x="344" y="722"/>
      <point x="290" y="782"/>
      <point x="291" y="863" type="curve" smooth="yes"/>
      <point x="292" y="937"/>
      <point x="344" y="988"/>
      <point x="418" y="988" type="curve" smooth="yes"/>
      <point x="464" y="988"/>
      <point x="502" y="978"/>
    </contour>
    <component base="v_i"/>
  </outline>
</glyph>
<glyph name="v_u" format="1">
  <advance width="534"/>
  <unicode hex="0909"/>
  <outline>
    <contour>
      <point x="184" y="362" type="line"/>
      <point x="327" y="362"/>
      <point x="437" y="298"/>
      <point x="439" y="192" type="curve" smooth="yes"/>
      <point x="441" y="86"/>
      <point x="359" y="20"/>
      <point x="241" y="24" type="curve" smooth="yes"/>
      <point x="169" y="24"/>
      <point x="105" y="59"/>
      <point x="61" y="110" type="curve"/>
      <point x="49" y="94" type="line"/>
      <point x="96" y="36"/>
      <point x="163" y="3"/>
      <point x="239" y="3" type="curve" smooth="yes"/>
      <point x="371" y="-2"/>
      <point x="462" y="74"/>
      <point x="460" y="195" type="curve" smooth="yes"/>
      <point x="458" y="311"/>
      <point x="338" y="379"/>
      <point x="184" y="379" type="curve"/>
    </contour>
    <contour>
      <point x="184" y="383" type="curve"/>
      <point x="184" y="365" type="line"/>
      <point x="329" y="365"/>
      <point x="440" y="432"/>
      <point x="440" y="543" type="curve" smooth="yes"/>
      <point x="440" y="656"/>
      <point x="361" y="720"/>
      <point x="252" y="720" type="curve"/>
      <point x="249" y="700" type="line"/>
      <point x="348" y="700"/>
      <point x="419" y="643"/>
      <point x="418" y="541" type="curve" smooth="yes"/>
      <point x="417" y="443"/>
      <point x="316" y="383"/>
    </contour>
    <component base="component_6" xOffset="251"/>
    <component base="component_6"/>
  </outline>
</glyph>
<glyph name="v_uu" format="1">
  <advance width="849"/>
  <unicode hex="090A"/>
  <outline>
    <contour>
      <point x="431" y="275" type="line"/>
      <point x="453" y="355"/>
      <point x="513" y="409"/>
      <point x="600" y="409" type="curve" smooth="yes"/>
      <point x="694" y="409"/>
      <point x="761" y="345"/>
      <point x="762" y="251" type="curve" smooth="yes"/>
      <point x="763" y="149"/>
      <point x="691" y="79"/>
      <point x="589" y="79" type="curve"/>
      <point x="589" y="57" type="line"/>
      <point x="703" y="57"/>
      <point x="784" y="136"/>
      <point x="784" y="249" type="curve" smooth="yes"/>
      <point x="784" y="356"/>
      <point x="706" y="429"/>
      <point x="598" y="429" type="curve" smooth="yes"/>
      <point x="505" y="429"/>
      <point x="437" y="373"/>
      <point x="413" y="287" type="curve"/>
    </contour>
    <component base="component_6" xOffset="566"/>
    <component base="component_6" xOffset="336"/>
    <component base="v_u"/>
  </outline>
</glyph>
<glyph name="v_rhu" format="1">
  <advance width="878"/>
  <unicode hex="090B"/>
  <outline>
    <contour>
      <point x="443" y="389" type="line"/>
      <point x="127" y="187" type="line"/>
      <point x="142" y="168" type="line"/>
      <point x="455" y="373" type="line"/>
    </contour>
    <contour>
      <point x="437" y="711" type="line"/>
      <point x="437" y="0" type="line"/>
      <point x="459" y="0" type="line"/>
      <point x="459" y="711" type="line"/>
    </contour>
    <contour>
      <point x="442" y="387" type="curve"/>
      <point x="437" y="367" type="line"/>
      <point x="463" y="360"/>
      <point x="481" y="356"/>
      <point x="507" y="356" type="curve" smooth="yes"/>
      <point x="636" y="356"/>
      <point x="735" y="396"/>
      <point x="735" y="498" type="curve" smooth="yes"/>
      <point x="735" y="536"/>
      <point x="714" y="561"/>
      <point x="677" y="561" type="curve" smooth="yes"/>
      <point x="643" y="561"/>
      <point x="626" y="539"/>
      <point x="605" y="511" type="curve"/>
      <point x="625" y="500" type="line"/>
      <point x="640" y="520"/>
      <point x="649" y="539"/>
      <point x="674" y="539" type="curve" smooth="yes"/>
      <point x="699" y="539"/>
      <point x="714" y="522"/>
      <point x="714" y="496" type="curve" smooth="yes"/>
      <point x="714" y="408"/>
      <point x="623" y="377"/>
      <point x="508" y="377" type="curve" smooth="yes"/>
      <point x="483" y="377"/>
      <point x="466" y="381"/>
    </contour>
    <contour>
      <point x="53" y="455" type="line"/>
      <point x="98" y="489"/>
      <point x="132" y="513"/>
      <point x="189" y="513" type="curve"/>
      <point x="310" y="513"/>
      <point x="349" y="423"/>
      <point x="446" y="362" type="curve"/>
      <point x="455" y="381" type="line"/>
      <point x="356" y="443"/>
      <point x="316" y="534"/>
      <point x="192" y="534" type="curve"/>
      <point x="130" y="534"/>
      <point x="90" y="510"/>
      <point x="42" y="471" type="curve"/>
    </contour>
    <contour>
      <point x="605" y="511" type="line"/>
      <point x="709" y="429"/>
      <point x="801" y="371"/>
      <point x="801" y="240" type="curve" smooth="yes"/>
      <point x="801" y="125"/>
      <point x="721" y="59"/>
      <point x="602" y="59" type="curve"/>
      <point x="606" y="41" type="line"/>
      <point x="736" y="41"/>
      <point x="820" y="116"/>
      <point x="820" y="243" type="curve"/>
      <point x="820" y="378"/>
      <point x="728" y="439"/>
      <point x="621" y="523" type="curve"/>
    </contour>
    <component base="component_6" xOffset="294"/>
    <component base="component_6"/>
    <component base="component_6" xOffset="595"/>
  </outline>
</glyph>
<glyph name="v_ee" format="1">
  <advance width="633"/>
  <unicode hex="090F"/>
  <outline>
    <contour>
      <point x="367" y="251" type="line"/>
      <point x="468" y="314"/>
      <point x="513" y="391"/>
      <point x="513" y="510" type="curve"/>
      <point x="513" y="711" type="line"/>
      <point x="491" y="711" type="line"/>
      <point x="491" y="506" type="line"/>
      <point x="491" y="398"/>
      <point x="450" y="326"/>
      <point x="357" y="271" type="curve"/>
    </contour>
    <contour>
      <point x="462" y="2" type="line"/>
      <point x="256" y="84"/>
      <point x="142" y="216"/>
      <point x="142" y="436" type="curve"/>
      <point x="142" y="711" type="line"/>
      <point x="120" y="711" type="line"/>
      <point x="120" y="430" type="line"/>
      <point x="120" y="200"/>
      <point x="242" y="64"/>
      <point x="459" y="-20" type="curve"/>
    </contour>
    <component base="component_6" xOffset="184"/>
    <component base="component_6" xOffset="350"/>
    <component base="component_6"/>
  </outline>
</glyph>
<glyph name="c_tta" format="1">
  <advance width="557"/>
  <unicode hex="091F"/>
  <outline>
    <contour>
      <point x="567" y="700" type="line"/>
      <point x="567" y="722" type="line"/>
      <point x="-10" y="722" type="line"/>
      <point x="-10" y="700" type="line"/>
    </contour>
    <contour>
      <point x="415" y="711" type="line"/>
      <point x="415" y="435" type="line"/>
      <point x="437" y="435" type="line"/>
      <point x="437" y="711" type="line"/>
    </contour>
    <contour>
      <point x="426" y="435" type="line"/>
      <point x="426" y="457" type="line"/>
      <point x="325" y="457" type="line"/>
      <point x="164" y="457"/>
      <point x="48" y="376"/>
      <point x="48" y="227" type="curve" smooth="yes"/>
      <point x="48" y="85"/>
      <point x="159" y="-1"/>
      <point x="328" y="-1" type="curve" smooth="yes"/>
      <point x="384" y="-1"/>
      <point x="435" y="8"/>
      <point x="468" y="32" type="curve"/>
      <point x="455" y="50" type="line"/>
      <point x="427" y="28"/>
      <point x="380" y="21"/>
      <point x="328" y="21" type="curve" smooth="yes"/>
      <point x="173" y="21"/>
      <point x="70" y="99"/>
      <point x="70" y="227" type="curve" smooth="yes"/>
      <point x="70" y="362"/>
      <point x="177" y="435"/>
      <point x="325" y="435" type="curve" smooth="yes"/>
    </contour>
  </outline>
</glyph>
<glyph name="c_ttha" format="1">
  <advance width="603"/>
  <unicode hex="0920"/>
  <outline>
    <contour>
      <point x="613" y="700" type="line"/>
      <point x="613" y="722" type="line"/>
      <point x="-10" y="724" type="line"/>
      <point x="-10" y="702" type="line"/>
    </contour>
    <contour>
      <point x="390" y="702" type="line"/>
      <point x="390" y="513" type="line"/>
      <point x="412" y="513" type="line"/>
      <point x="412" y="702" type="line"/>
    </contour>
    <contour>
      <point x="397" y="535" type="curve"/>
      <point x="209" y="512"/>
      <point x="58" y="411"/>
      <point x="58" y="248" type="curve" smooth="yes"/>
      <point x="58" y="105"/>
      <point x="173" y="-15"/>
      <point x="359" y="-15" type="curve" smooth="yes"/>
      <point x="516" y="-15"/>
      <point x="596" y="105"/>
      <point x="596" y="238" type="curve"/>
      <point x="596" y="372"/>
      <point x="534" y="488"/>
    </contour>
    <contour>
      <point x="574" y="238" type="curve"/>
      <point x="574" y="117"/>
      <point x="504" y="7"/>
      <point x="359" y="7" type="curve" smooth="yes"/>
      <point x="185" y="7"/>
      <point x="80" y="117"/>
      <point x="80" y="248" type="curve" smooth="yes"/>
      <point x="80" y="398"/>
      <point x="222" y="489"/>
      <point x="397" y="513" type="curve"/>
      <point x="523" y="466"/>
      <point x="574" y="361"/>
    </contour>
  </outline>
</glyph>
<glyph name="c_dda" format="1">
  <advance width="561"/>
  <unicode hex="0921"/>
  <outline>
    <contour>
      <point x="151" y="289" type="move"/>
      <point x="104" y="324"/>
      <point x="69" y="357"/>
      <point x="69" y="415" type="curve"/>
      <point x="69" y="488"/>
      <point x="130" y="521"/>
      <point x="210" y="521" type="curve"/>
      <point x="407" y="521" type="line"/>
      <point x="407" y="541" type="line"/>
      <point x="213" y="541" type="line"/>
      <point x="119" y="541"/>
      <point x="47" y="503"/>
      <point x="47" y="417" type="curve"/>
      <point x="47" y="347"/>
      <point x="85" y="305"/>
      <point x="145" y="267" type="curve"/>
    </contour>
    <contour>
      <point x="571" y="700" type="line"/>
      <point x="571" y="722" type="line"/>
      <point x="-10" y="722" type="line"/>
      <point x="-10" y="700" type="line"/>
    </contour>
    <contour>
      <point x="145" y="267" type="move"/>
      <point x="325" y="322"/>
      <point x="486" y="344"/>
      <point x="486" y="202" type="curve" smooth="yes"/>
      <point x="486" y="92"/>
      <point x="392" y="43"/>
      <point x="271" y="43" type="curve" smooth="yes"/>
      <point x="170" y="43"/>
      <point x="103" y="86"/>
      <point x="34" y="160" type="curve"/>
      <point x="16" y="147" type="line"/>
      <point x="90" y="69"/>
      <point x="159" y="22"/>
      <point x="267" y="22" type="curve" smooth="yes"/>
      <point x="404" y="22"/>
      <point x="507" y="81"/>
      <point x="507" y="207" type="curve" smooth="yes"/>
      <point x="505" y="356"/>
      <point x="338" y="346"/>
      <point x="151" y="289" type="curve"/>
    </contour>
    <contour>
      <point x="395" y="711" type="line"/>
      <point x="395" y="522" type="line"/>
      <point x="417" y="522" type="line"/>
      <point x="417" y="711" type="line"/>
    </contour>
    <contour>
      <point x="448" y="660" type="move" name="DVAnchor3"/>
    </contour>
    <contour>
      <point x="313" y="45" type="move" name="DVAnchor0"/>
    </contour>
  </outline>
</glyph>
<glyph name="c_nna" format="1">
  <advance width="819"/>
  <unicode hex="0923"/>
  <outline>
    <contour>
      <point x="599" y="700" type="line"/>
      <point x="599" y="722" type="line"/>
      <point x="-2" y="722" type="line"/>
      <point x="-2" y="700" type="line"/>
    </contour>
    <contour>
      <point x="319" y="186" type="curve"/>
      <point x="205" y="186"/>
      <point x="142" y="249"/>
      <point x="142" y="363" type="curve"/>
      <point x="142" y="710" type="line"/>
      <point x="120" y="710" type="line"/>
      <point x="120" y="366" type="line"/>
      <point x="120" y="236"/>
      <point x="190" y="163"/>
      <point x="319" y="163" type="curve"/>
      <point x="448" y="163"/>
      <point x="517" y="236"/>
      <point x="517" y="366" type="curve"/>
      <point x="517" y="710" type="line"/>
      <point x="495" y="710" type="line"/>
      <point x="495" y="363" type="line"/>
      <point x="495" y="249"/>
      <point x="433" y="186"/>
    </contour>
    <component base="kana" xOffset="546"/>
  </outline>
</glyph>
<glyph name="c_ta" format="1">
  <advance width="561"/>
  <unicode hex="0924"/>
  <outline>
    <contour>
      <point x="294" y="44" type="line"/>
      <point x="180" y="111"/>
      <point x="90" y="174"/>
      <point x="90" y="303" type="curve" smooth="yes"/>
      <point x="90" y="389"/>
      <point x="139" y="448"/>
      <point x="223" y="448" type="curve" smooth="yes"/>
      <point x="300" y="448"/>
      <point x="354" y="448"/>
      <point x="431" y="448" type="curve"/>
      <point x="431" y="468" type="line"/>
      <point x="354" y="468"/>
      <point x="299" y="468"/>
      <point x="222" y="468" type="curve" smooth="yes"/>
      <point x="126" y="468"/>
      <point x="69" y="400"/>
      <point x="69" y="301" type="curve" smooth="yes"/>
      <point x="69" y="165"/>
      <point x="160" y="94"/>
      <point x="282" y="27" type="curve"/>
    </contour>
    <contour>
      <point x="311" y="700" type="line"/>
      <point x="311" y="722" type="line"/>
      <point x="-10" y="722" type="line"/>
      <point x="-10" y="700" type="line"/>
    </contour>
    <component base="kana" xOffset="288"/>
    <contour>
      <point x="325" y="660" type="move" name="DVAnchor3"/>
    </contour>
  </outline>
</glyph>
<glyph name="c_da" format="1">
  <advance width="573"/>
  <unicode hex="0926"/>
  <outline>
    <contour>
      <point x="426" y="522" type="line"/>
      <point x="426" y="544" type="line"/>
      <point x="325" y="544" type="line"/>
      <point x="181" y="544"/>
      <point x="78" y="470"/>
      <point x="78" y="333" type="curve" smooth="yes"/>
      <point x="78" y="203"/>
      <point x="165" y="124"/>
      <point x="297" y="124" type="curve" smooth="yes"/>
      <point x="394" y="124"/>
      <point x="474" y="151"/>
      <point x="474" y="236" type="curve" smooth="yes"/>
      <point x="474" y="284"/>
      <point x="455" y="321"/>
      <point x="411" y="321" type="curve" smooth="yes"/>
      <point x="363" y="321"/>
      <point x="344" y="279"/>
      <point x="344" y="226" type="curve" smooth="yes"/>
      <point x="344" y="97"/>
      <point x="411" y="15"/>
      <point x="526" y="-46" type="curve"/>
      <point x="540" y="-28" type="line"/>
      <point x="430" y="28"/>
      <point x="366" y="104"/>
      <point x="366" y="226" type="curve" smooth="yes"/>
      <point x="366" y="266"/>
      <point x="376" y="299"/>
      <point x="411" y="299" type="curve" smooth="yes"/>
      <point x="442" y="299"/>
      <point x="452" y="271"/>
      <point x="452" y="236" type="curve" smooth="yes"/>
      <point x="452" y="163"/>
      <point x="381" y="146"/>
      <point x="297" y="146" type="curve" smooth="yes"/>
      <point x="179" y="146"/>
      <point x="100" y="217"/>
      <point x="100" y="333" type="curve" smooth="yes"/>
      <point x="100" y="456"/>
      <point x="194" y="522"/>
      <point x="325" y="522" type="curve" smooth="yes"/>
    </contour>
    <contour>
      <point x="583" y="700" type="line"/>
      <point x="583" y="722" type="line"/>
      <point x="-10" y="722" type="line"/>
      <point x="-10" y="700" type="line"/>
    </contour>
    <contour>
      <point x="415" y="711" type="line"/>
      <point x="415" y="522" type="line"/>
      <point x="437" y="522" type="line"/>
      <point x="437" y="711" type="line"/>
    </contour>
  </outline>
</glyph>
<glyph name="c_ba" format="1">
  <advance width="566"/>
  <unicode hex="092C"/>
  <outline>
    <contour>
      <point x="426" y="302" type="line"/>
      <point x="395" y="211"/>
      <point x="326" y="154"/>
      <point x="230" y="154" type="curve" smooth="yes"/>
      <point x="134" y="154"/>
      <point x="66" y="220"/>
      <point x="66" y="315" type="curve" smooth="yes"/>
      <point x="66" y="411"/>
      <point x="138" y="476"/>
      <point x="236" y="476" type="curve" smooth="yes"/>
      <point x="314" y="476"/>
      <point x="375" y="445"/>
      <point x="430" y="389" type="curve"/>
      <point x="436" y="411" type="line"/>
      <point x="379" y="467"/>
      <point x="316" y="495"/>
      <point x="236" y="495" type="curve" smooth="yes"/>
      <point x="126" y="495"/>
      <point x="45" y="424"/>
      <point x="45" y="317" type="curve" smooth="yes"/>
      <point x="45" y="208"/>
      <point x="123" y="133"/>
      <point x="233" y="133" type="curve" smooth="yes"/>
      <point x="338" y="133"/>
      <point x="413" y="199"/>
      <point x="443" y="302" type="curve"/>
    </contour>
    <contour>
      <point x="319" y="700" type="line"/>
      <point x="319" y="722" type="line"/>
      <point x="-10" y="722" type="line"/>
      <point x="-10" y="700" type="line"/>
    </contour>
    <contour>
      <point x="372" y="195" type="line"/>
      <point x="138" y="465" type="line"/>
      <point x="120" y="453" type="line"/>
      <point x="353" y="183" type="line"/>
    </contour>
    <component base="kana" xOffset="293"/>
    <contour>
      <point x="413" y="660" type="move" name="DVAnchor3"/>
    </contour>
  </outline>
</glyph>
<glyph name="c_lla" format="1">
  <advance width="698"/>
  <unicode hex="0933"/>
  <outline>
    <contour>
      <point x="733" y="700" type="line"/>
      <point x="733" y="722" type="line"/>
      <point x="-10" y="722" type="line"/>
      <point x="-10" y="700" type="line"/>
      <point x="486" y="700" type="line"/>
      <point x="486" y="428" type="line"/>
      <point x="508" y="428" type="line"/>
      <point x="508" y="700" type="line"/>
    </contour>
    <contour>
      <point x="213" y="142" type="curve"/>
      <point x="106" y="142"/>
      <point x="58" y="204"/>
      <point x="58" y="294" type="curve" smooth="yes"/>
      <point x="58" y="372"/>
      <point x="105" y="423"/>
      <point x="202" y="423" type="curve" smooth="yes"/>
      <point x="274" y="423"/>
      <point x="317" y="402"/>
      <point x="368" y="351" type="curve"/>
      <point x="378" y="367" type="line"/>
      <point x="325" y="421"/>
      <point x="279" y="443"/>
      <point x="204" y="443" type="curve" smooth="yes"/>
      <point x="93" y="443"/>
      <point x="37" y="384"/>
      <point x="37" y="292" type="curve" smooth="yes"/>
      <point x="37" y="190"/>
      <point x="92" y="121"/>
      <point x="210" y="121" type="curve"/>
      <point x="311" y="121"/>
      <point x="344" y="187"/>
      <point x="351" y="275" type="curve" smooth="yes"/>
      <point x="358" y="358"/>
      <point x="395" y="418"/>
      <point x="493" y="418" type="curve" smooth="yes"/>
      <point x="590" y="418"/>
      <point x="631" y="361"/>
      <point x="631" y="280" type="curve"/>
      <point x="631" y="191"/>
      <point x="584" y="129"/>
      <point x="479" y="129" type="curve" smooth="yes"/>
      <point x="409" y="129"/>
      <point x="371" y="157"/>
      <point x="320" y="205" type="curve"/>
      <point x="309" y="185" type="line"/>
      <point x="364" y="136"/>
      <point x="403" y="109"/>
      <point x="477" y="109" type="curve" smooth="yes"/>
      <point x="597" y="109"/>
      <point x="653" y="179"/>
      <point x="653" y="284" type="curve"/>
      <point x="653" y="376"/>
      <point x="606" y="440"/>
      <point x="498" y="440" type="curve" smooth="yes"/>
      <point x="385" y="440"/>
      <point x="338" y="371"/>
      <point x="331" y="272" type="curve" smooth="yes"/>
      <point x="326" y="198"/>
      <point x="300" y="142"/>
    </contour>
  </outline>
</glyph>
<glyph name="c_ha" format="1">
  <advance width="466"/>
  <unicode hex="0939"/>
  <outline>
    <contour>
      <point x="159" y="284" type="move"/>
      <point x="112" y="319"/>
      <point x="69" y="357"/>
      <point x="69" y="415" type="curve"/>
      <point x="69" y="484"/>
      <point x="135" y="521"/>
      <point x="210" y="521" type="curve"/>
      <point x="347" y="521" type="line"/>
      <point x="347" y="541" type="line"/>
      <point x="213" y="541" type="line"/>
      <point x="125" y="541"/>
      <point x="47" y="498"/>
      <point x="47" y="417" type="curve"/>
      <point x="47" y="353"/>
      <point x="88" y="306"/>
      <point x="143" y="271" type="curve"/>
    </contour>
    <contour>
      <point x="335" y="711" type="line"/>
      <point x="335" y="522" type="line"/>
      <point x="357" y="522" type="line"/>
      <point x="357" y="711" type="line"/>
    </contour>
    <contour>
      <point x="481" y="700" type="line"/>
      <point x="481" y="722" type="line"/>
      <point x="-10" y="722" type="line"/>
      <point x="-10" y="700" type="line"/>
    </contour>
    <contour>
      <point x="404" y="167" type="curve"/>
      <point x="404" y="122"/>
      <point x="392" y="81"/>
      <point x="360" y="49" type="curve"/>
      <point x="375" y="35" type="line"/>
      <point x="410" y="73"/>
      <point x="426" y="117"/>
      <point x="426" y="169" type="curve"/>
      <point x="426" y="258"/>
      <point x="342" y="308"/>
      <point x="245" y="308" type="curve" smooth="yes"/>
      <point x="137" y="308"/>
      <point x="57" y="227"/>
      <point x="57" y="118" type="curve" smooth="yes"/>
      <point x="57" y="-1"/>
      <point x="160" y="-79"/>
      <point x="283" y="-79" type="curve"/>
      <point x="283" y="-61" type="line"/>
      <point x="169" y="-61"/>
      <point x="78" y="9"/>
      <point x="78" y="118" type="curve" smooth="yes"/>
      <point x="78" y="215"/>
      <point x="149" y="287"/>
      <point x="245" y="287" type="curve" smooth="yes"/>
      <point x="330" y="287"/>
      <point x="404" y="245"/>
    </contour>
  </outline>
</glyph>
<glyph name="daggerdbl" format="1">
  <advance width="351"/>
  <unicode hex="2021"/>
  <outline>
    <contour>
      <point x="341" y="97" type="line"/>
      <point x="341" y="119" type="line"/>
      <point x="18" y="119" type="line"/>
      <point x="18" y="97" type="line"/>
    </contour>
    <contour>
      <point x="341" y="549" type="line"/>
      <point x="341" y="571" type="line"/>
      <point x="18" y="571" type="line"/>
      <point x="18" y="549" type="line"/>
    </contour>
    <contour>
      <point x="168" y="722" type="line"/>
      <point x="168" y="-57" type="line"/>
      <point x="190" y="-57" type="line"/>
      <point x="190" y="722" type="line"/>
    </contour>
  </outline>
</glyph>
<glyph name="bullet" format="1">
  <advance width="318"/>
  <unicode hex="2022"/>
  <outline>
    <contour>
      <point x="113" y="270" type="curve" smooth="yes"/>
      <point x="113" y="239"/>
      <point x="132" y="220"/>
      <point x="162" y="220" type="curve" smooth="yes"/>
      <point x="192" y="220"/>
      <point x="211" y="239"/>
      <point x="211" y="270" type="curve" smooth="yes"/>
      <point x="211" y="300"/>
      <point x="192" y="319"/>
      <point x="162" y="319" type="curve" smooth="yes"/>
      <point x="132" y="319"/>
      <point x="113" y="300"/>
    </contour>
  </outline>
</glyph>
<glyph name="fi" format="1">
  <advance width="613"/>
  <unicode hex="FB01"/>
  <outline>
    <contour>
      <point x="265" y="486" type="line"/>
      <point x="482" y="486" type="line"/>
      <point x="482" y="0" type="line"/>
      <point x="505" y="0" type="line"/>
      <point x="505" y="508" type="line"/>
      <point x="265" y="508" type="line"/>
      <point x="265" y="601" type="line"/>
      <point x="265" y="717"/>
      <point x="322" y="785"/>
      <point x="418" y="785" type="curve" smooth="yes"/>
      <point x="439" y="785"/>
      <point x="460" y="782"/>
      <point x="482" y="776" type="curve"/>
      <point x="482" y="690" type="line"/>
      <point x="504" y="690" type="line"/>
      <point x="504" y="791" type="line"/>
      <point x="473" y="802"/>
      <point x="443" y="807"/>
      <point x="413" y="807" type="curve" smooth="yes"/>
      <point x="308" y="807"/>
      <point x="242" y="730"/>
      <point x="243" y="601" type="curve" smooth="yes"/>
      <point x="243" y="508" type="line"/>
      <point x="69" y="508" type="line"/>
      <point x="69" y="486" type="line"/>
      <point x="243" y="486" type="line"/>
      <point x="243" y="0" type="line"/>
      <point x="265" y="0" type="line"/>
    </contour>
  </outline>
</glyph>
<glyph name="fl" format="1">
  <advance width="609"/>
  <unicode hex="FB02"/>
  <outline>
    <contour>
      <point x="265" y="593" type="line"/>
      <point x="265" y="720"/>
      <point x="322" y="794"/>
      <point x="418" y="794" type="curve" smooth="yes"/>
      <point x="439" y="794"/>
      <point x="460" y="791"/>
      <point x="482" y="785" type="curve"/>
      <point x="482" y="508" type="line"/>
      <point x="265" y="508" type="line"/>
    </contour>
    <contour>
      <point x="482" y="0" type="line"/>
      <point x="504" y="0" type="line"/>
      <point x="504" y="800" type="line"/>
      <point x="473" y="811"/>
      <point x="443" y="816"/>
      <point x="413" y="816" type="curve" smooth="yes"/>
      <point x="308" y="816"/>
      <point x="242" y="733"/>
      <point x="243" y="593" type="curve" smooth="yes"/>
      <point x="243" y="508" type="line"/>
      <point x="69" y="508" type="line"/>
      <point x="69" y="486" type="line"/>
      <point x="243" y="486" type="line"/>
      <point x="243" y="0" type="line"/>
      <point x="265" y="0" type="line"/>
      <point x="265" y="486" type="line"/>
      <point x="482" y="486" type="line"/>
    </contour>
  </outline>
</glyph>
<glyph name="Acute" format="1">
  <advance width="234"/>
  <outline>
    <contour>
      <point x="42" y="823" type="line"/>
      <point x="27" y="835" type="line"/>
      <point x="183" y="1025" type="line"/>
      <point x="197" y="1014" type="line"/>
    </contour>
  </outline>
</glyph>
<glyph name="Dieresis" format="1">
  <advance width="310"/>
  <outline>
    <contour>
      <point x="225" y="925" type="line"/>
      <point x="203" y="925" type="line"/>
      <point x="203" y="823" type="line"/>
      <point x="225" y="823" type="line"/>
    </contour>
    <contour>
      <point x="108" y="823" type="line"/>
      <point x="108" y="925" type="line"/>
      <point x="86" y="925" type="line"/>
      <point x="86" y="823" type="line"/>
    </contour>
  </outline>
</glyph>
<glyph name=".004" format="1">
  <advance width="618"/>
  <outline>
    <contour>
      <point x="140" y="-300" type="line"/>
      <point x="140" y="533" type="line"/>
      <point x="118" y="533" type="line"/>
      <point x="118" y="-300" type="line"/>
    </contour>
    <component base="u"/>
  </outline>
</glyph>
<glyph name="component_1" format="1">
  <advance width="265"/>
  <outline>
    <contour>
      <point x="123" y="716" type="curve"/>
      <point x="145" y="716" type="line"/>
      <point x="145" y="843"/>
      <point x="53" y="893"/>
      <point x="-85" y="893" type="curve" smooth="yes"/>
      <point x="-212" y="893"/>
      <point x="-302" y="928"/>
      <point x="-302" y="1041" type="curve"/>
      <point x="-323" y="1041" type="line"/>
      <point x="-323" y="915"/>
      <point x="-226" y="872"/>
      <point x="-86" y="872" type="curve" smooth="yes"/>
      <point x="38" y="872"/>
      <point x="123" y="829"/>
    </contour>
  </outline>
</glyph>
<glyph name="component_6" format="1">
  <advance width="263"/>
  <outline>
    <contour>
      <point x="293" y="700" type="line"/>
      <point x="293" y="722" type="line"/>
      <point x="-10" y="722" type="line"/>
      <point x="-10" y="700" type="line"/>
    </contour>
  </outline>
</glyph>
<glyph name="kana" format="1">
  <advance width="283"/>
  <outline>
    <contour>
      <point x="131" y="710" type="line"/>
      <point x="131" y="0" type="line"/>
      <point x="153" y="0" type="line"/>
      <point x="153" y="710" type="line"/>
    </contour>
    <component base="component_6"/>
  </outline>
</glyph>
